<svg xmlns="http://www.w3.org/2000/svg" viewBox="0 0 495 144" width="495" height="144">
	<style>
		tspan { white-space:pre }
	</style>
	<path id="tomu.ca " fill="#ff2b00" d="M71.19 104.28L71.19 91.4L60.44 91.4L60.44 58.36L72.09 58.36L72.09 45.48L60.44 45.48L60.44 29.57L45.54 29.57L45.54 39.2C45.54 43.24 44.2 45.48 39.72 45.48L35.58 45.48L35.58 58.36L43.86 58.36L43.86 87.14C43.86 98.34 49.91 104.28 61.34 104.28ZM107.03 105.62C124.28 105.62 134.58 93.75 134.58 74.82C134.58 55.89 124.28 44.13 107.03 44.13C89.78 44.13 79.48 55.89 79.48 74.82C79.48 93.75 89.78 105.62 107.03 105.62ZM107.03 92.52C100.54 92.52 96.73 88.26 96.73 80.87L96.73 68.88C96.73 61.49 100.54 57.24 107.03 57.24C113.53 57.24 117.34 61.49 117.34 68.88L117.34 80.87C117.34 88.26 113.53 92.52 107.03 92.52ZM162.92 104.28L162.92 66.2C162.92 60.37 167.85 57.57 172.66 57.57C178.04 57.57 180.73 61.16 180.73 68.77L180.73 104.28L197.3 104.28L197.3 66.2C197.3 60.37 202.12 57.57 207.05 57.57C212.54 57.57 215.11 61.16 215.11 68.77L215.11 104.28L231.69 104.28L231.69 67.43C231.69 52.64 225.42 44.13 214.1 44.13C205.14 44.13 198.31 49.4 196.18 56L195.85 56C193.27 48.28 187.45 44.13 179.38 44.13C170.65 44.13 165.72 49.17 163.59 55.44L162.92 55.44L162.92 45.48L146.34 45.48L146.34 104.28ZM281.19 104.28L297.77 104.28L297.77 45.48L281.19 45.48L281.19 83.67C281.19 89.27 275.93 92.18 270.78 92.18C264.73 92.18 262.38 88.15 262.38 80.98L262.38 45.48L245.8 45.48L245.8 82.44C245.8 97.22 252.18 105.62 264.17 105.62C273.8 105.62 278.62 100.36 280.63 94.42L281.19 94.42ZM322.86 105.51C329.58 105.51 332.71 101.7 332.71 96.55L332.71 94.31C332.71 89.16 329.58 85.35 322.86 85.35C316.14 85.35 313 89.16 313 94.31L313 96.55C313 101.7 316.14 105.51 322.86 105.51ZM370.01 105.62C381.54 105.62 389.94 100.58 393.86 89.38L380.98 83.78C379.3 88.48 376.62 92.63 370.01 92.63C363.29 92.63 359.82 87.81 359.82 80.42L359.82 69.44C359.82 62.05 363.29 57.24 370.01 57.24C375.83 57.24 379.08 60.82 380.09 65.3L393.53 59.48C390.06 49.84 381.88 44.13 370.01 44.13C352.31 44.13 342.57 56 342.57 74.82C342.57 93.64 352.31 105.62 370.01 105.62ZM456.81 104.28L456.81 91.4L451.32 91.4L451.32 65.64C451.32 51.75 442.81 44.13 426.23 44.13C413.91 44.13 407.19 48.39 402.49 55.33L412.34 64.07C414.92 60.48 418.39 57.12 425 57.12C431.94 57.12 434.74 60.71 434.74 66.42L434.74 70.12L425.45 70.12C409.88 70.12 400.25 76.05 400.25 88.48C400.25 98.68 406.74 105.62 418.5 105.62C427.46 105.62 433.96 101.59 435.75 93.97L436.42 93.97C437.43 100.24 441.69 104.28 447.62 104.28ZM424.66 94.08C419.74 94.08 416.94 92.07 416.94 87.81L416.94 86.13C416.94 81.88 420.3 79.52 426.68 79.52L434.74 79.52L434.74 86.47C434.74 91.84 430.15 94.08 424.66 94.08Z" />
</svg>